<?xml version="1.0" encoding="utf-8" standalone="no"?>
<!DOCTYPE svg PUBLIC "-//W3C//DTD SVG 1.1//EN"
  "http://www.w3.org/Graphics/SVG/1.1/DTD/svg11.dtd">
<!-- Created with matplotlib (https://matplotlib.org/) -->
<svg height="144pt" version="1.1" viewBox="0 0 360 144" width="360pt" xmlns="http://www.w3.org/2000/svg" xmlns:xlink="http://www.w3.org/1999/xlink">
 <defs>
  <style type="text/css">
*{stroke-linecap:butt;stroke-linejoin:round;}
  </style>
 </defs>
 <g id="figure_1">
  <g id="patch_1">
   <path d="M 0 144 
L 360 144 
L 360 0 
L 0 0 
z
" style="fill:#ffffff;"/>
  </g>
  <g id="axes_1">
   <g id="patch_2">
    <path d="M 45 126 
L 324 126 
L 324 17.28 
L 45 17.28 
z
" style="fill:#ffffff;"/>
   </g>
   <g id="patch_3">
    <path clip-path="url(#pc06066e03b)" d="M 57.681818 126 
L 59.953189 126 
L 59.953189 22.457143 
L 57.681818 22.457143 
z
" style="fill:#ff0000;"/>
   </g>
   <g id="patch_4">
    <path clip-path="url(#pc06066e03b)" d="M 60.710312 126 
L 62.981682 126 
L 62.981682 22.461553 
L 60.710312 22.461553 
z
" style="fill:#ff0000;"/>
   </g>
   <g id="patch_5">
    <path clip-path="url(#pc06066e03b)" d="M 63.738806 126 
L 66.010176 126 
L 66.010176 22.466379 
L 63.738806 22.466379 
z
" style="fill:#ff0000;"/>
   </g>
   <g id="patch_6">
    <path clip-path="url(#pc06066e03b)" d="M 66.7673 126 
L 69.03867 126 
L 69.03867 22.472312 
L 66.7673 22.472312 
z
" style="fill:#ff0000;"/>
   </g>
   <g id="patch_7">
    <path clip-path="url(#pc06066e03b)" d="M 69.795794 126 
L 72.067164 126 
L 72.067164 22.478336 
L 69.795794 22.478336 
z
" style="fill:#ff0000;"/>
   </g>
   <g id="patch_8">
    <path clip-path="url(#pc06066e03b)" d="M 72.824288 126 
L 75.095658 126 
L 75.095658 22.485343 
L 72.824288 22.485343 
z
" style="fill:#ff0000;"/>
   </g>
   <g id="patch_9">
    <path clip-path="url(#pc06066e03b)" d="M 75.852782 126 
L 78.124152 126 
L 78.124152 22.492749 
L 75.852782 22.492749 
z
" style="fill:#ff0000;"/>
   </g>
   <g id="patch_10">
    <path clip-path="url(#pc06066e03b)" d="M 78.881275 126 
L 81.152646 126 
L 81.152646 22.501197 
L 78.881275 22.501197 
z
" style="fill:#ff0000;"/>
   </g>
   <g id="patch_11">
    <path clip-path="url(#pc06066e03b)" d="M 81.909769 126 
L 84.18114 126 
L 84.18114 22.510843 
L 81.909769 22.510843 
z
" style="fill:#ff0000;"/>
   </g>
   <g id="patch_12">
    <path clip-path="url(#pc06066e03b)" d="M 84.938263 126 
L 87.209634 126 
L 87.209634 22.52182 
L 84.938263 22.52182 
z
" style="fill:#ff0000;"/>
   </g>
   <g id="patch_13">
    <path clip-path="url(#pc06066e03b)" d="M 87.966757 126 
L 90.238128 126 
L 90.238128 22.534234 
L 87.966757 22.534234 
z
" style="fill:#ff0000;"/>
   </g>
   <g id="patch_14">
    <path clip-path="url(#pc06066e03b)" d="M 90.995251 126 
L 93.266621 126 
L 93.266621 22.548555 
L 90.995251 22.548555 
z
" style="fill:#ff0000;"/>
   </g>
   <g id="patch_15">
    <path clip-path="url(#pc06066e03b)" d="M 94.023745 126 
L 96.295115 126 
L 96.295115 22.564257 
L 94.023745 22.564257 
z
" style="fill:#ff0000;"/>
   </g>
   <g id="patch_16">
    <path clip-path="url(#pc06066e03b)" d="M 97.052239 126 
L 99.323609 126 
L 99.323609 22.582056 
L 97.052239 22.582056 
z
" style="fill:#ff0000;"/>
   </g>
   <g id="patch_17">
    <path clip-path="url(#pc06066e03b)" d="M 100.080733 126 
L 102.352103 126 
L 102.352103 22.603508 
L 100.080733 22.603508 
z
" style="fill:#ff0000;"/>
   </g>
   <g id="patch_18">
    <path clip-path="url(#pc06066e03b)" d="M 103.109227 126 
L 105.380597 126 
L 105.380597 22.626942 
L 103.109227 22.626942 
z
" style="fill:#ff0000;"/>
   </g>
   <g id="patch_19">
    <path clip-path="url(#pc06066e03b)" d="M 106.13772 126 
L 108.409091 126 
L 108.409091 22.653744 
L 106.13772 22.653744 
z
" style="fill:#ff0000;"/>
   </g>
   <g id="patch_20">
    <path clip-path="url(#pc06066e03b)" d="M 109.166214 126 
L 111.437585 126 
L 111.437585 22.684711 
L 109.166214 22.684711 
z
" style="fill:#ff0000;"/>
   </g>
   <g id="patch_21">
    <path clip-path="url(#pc06066e03b)" d="M 112.194708 126 
L 114.466079 126 
L 114.466079 22.720697 
L 112.194708 22.720697 
z
" style="fill:#ff0000;"/>
   </g>
   <g id="patch_22">
    <path clip-path="url(#pc06066e03b)" d="M 115.223202 126 
L 117.494573 126 
L 117.494573 22.762653 
L 115.223202 22.762653 
z
" style="fill:#ff0000;"/>
   </g>
   <g id="patch_23">
    <path clip-path="url(#pc06066e03b)" d="M 118.251696 126 
L 120.523066 126 
L 120.523066 22.809333 
L 118.251696 22.809333 
z
" style="fill:#ff0000;"/>
   </g>
   <g id="patch_24">
    <path clip-path="url(#pc06066e03b)" d="M 121.28019 126 
L 123.55156 126 
L 123.55156 22.86681 
L 121.28019 22.86681 
z
" style="fill:#ff0000;"/>
   </g>
   <g id="patch_25">
    <path clip-path="url(#pc06066e03b)" d="M 124.308684 126 
L 126.580054 126 
L 126.580054 22.932947 
L 124.308684 22.932947 
z
" style="fill:#ff0000;"/>
   </g>
   <g id="patch_26">
    <path clip-path="url(#pc06066e03b)" d="M 127.337178 126 
L 129.608548 126 
L 129.608548 23.010916 
L 127.337178 23.010916 
z
" style="fill:#ff0000;"/>
   </g>
   <g id="patch_27">
    <path clip-path="url(#pc06066e03b)" d="M 130.365672 126 
L 132.637042 126 
L 132.637042 23.102827 
L 130.365672 23.102827 
z
" style="fill:#ff0000;"/>
   </g>
   <g id="patch_28">
    <path clip-path="url(#pc06066e03b)" d="M 133.394166 126 
L 135.665536 126 
L 135.665536 23.207504 
L 133.394166 23.207504 
z
" style="fill:#ff0000;"/>
   </g>
   <g id="patch_29">
    <path clip-path="url(#pc06066e03b)" d="M 136.422659 126 
L 138.69403 126 
L 138.69403 23.336862 
L 136.422659 23.336862 
z
" style="fill:#ff0000;"/>
   </g>
   <g id="patch_30">
    <path clip-path="url(#pc06066e03b)" d="M 139.451153 126 
L 141.722524 126 
L 141.722524 23.491057 
L 139.451153 23.491057 
z
" style="fill:#ff0000;"/>
   </g>
   <g id="patch_31">
    <path clip-path="url(#pc06066e03b)" d="M 142.479647 126 
L 144.751018 126 
L 144.751018 23.681745 
L 142.479647 23.681745 
z
" style="fill:#ff0000;"/>
   </g>
   <g id="patch_32">
    <path clip-path="url(#pc06066e03b)" d="M 145.508141 126 
L 147.779512 126 
L 147.779512 23.924522 
L 145.508141 23.924522 
z
" style="fill:#ff0000;"/>
   </g>
   <g id="patch_33">
    <path clip-path="url(#pc06066e03b)" d="M 148.536635 126 
L 150.808005 126 
L 150.808005 24.234868 
L 148.536635 24.234868 
z
" style="fill:#ff0000;"/>
   </g>
   <g id="patch_34">
    <path clip-path="url(#pc06066e03b)" d="M 151.565129 126 
L 153.836499 126 
L 153.836499 24.639733 
L 151.565129 24.639733 
z
" style="fill:#ff0000;"/>
   </g>
   <g id="patch_35">
    <path clip-path="url(#pc06066e03b)" d="M 154.593623 126 
L 156.864993 126 
L 156.864993 25.160059 
L 154.593623 25.160059 
z
" style="fill:#ff0000;"/>
   </g>
   <g id="patch_36">
    <path clip-path="url(#pc06066e03b)" d="M 157.622117 126 
L 159.893487 126 
L 159.893487 25.823401 
L 157.622117 25.823401 
z
" style="fill:#ff0000;"/>
   </g>
   <g id="patch_37">
    <path clip-path="url(#pc06066e03b)" d="M 160.650611 126 
L 162.921981 126 
L 162.921981 26.716778 
L 160.650611 26.716778 
z
" style="fill:#ff0000;"/>
   </g>
   <g id="patch_38">
    <path clip-path="url(#pc06066e03b)" d="M 163.679104 126 
L 165.950475 126 
L 165.950475 27.914178 
L 163.679104 27.914178 
z
" style="fill:#ff0000;"/>
   </g>
   <g id="patch_39">
    <path clip-path="url(#pc06066e03b)" d="M 166.707598 126 
L 168.978969 126 
L 168.978969 29.544247 
L 166.707598 29.544247 
z
" style="fill:#ff0000;"/>
   </g>
   <g id="patch_40">
    <path clip-path="url(#pc06066e03b)" d="M 169.736092 126 
L 172.007463 126 
L 172.007463 31.824979 
L 169.736092 31.824979 
z
" style="fill:#ff0000;"/>
   </g>
   <g id="patch_41">
    <path clip-path="url(#pc06066e03b)" d="M 172.764586 126 
L 175.035957 126 
L 175.035957 35.086113 
L 172.764586 35.086113 
z
" style="fill:#ff0000;"/>
   </g>
   <g id="patch_42">
    <path clip-path="url(#pc06066e03b)" d="M 175.79308 126 
L 178.06445 126 
L 178.06445 39.854664 
L 175.79308 39.854664 
z
" style="fill:#ff0000;"/>
   </g>
   <g id="patch_43">
    <path clip-path="url(#pc06066e03b)" d="M 178.821574 126 
L 181.092944 126 
L 181.092944 46.607521 
L 178.821574 46.607521 
z
" style="fill:#ff0000;"/>
   </g>
   <g id="patch_44">
    <path clip-path="url(#pc06066e03b)" d="M 181.850068 126 
L 184.121438 126 
L 184.121438 56.635418 
L 181.850068 56.635418 
z
" style="fill:#ff0000;"/>
   </g>
   <g id="patch_45">
    <path clip-path="url(#pc06066e03b)" d="M 184.878562 126 
L 187.149932 126 
L 187.149932 70.580332 
L 184.878562 70.580332 
z
" style="fill:#ff0000;"/>
   </g>
   <g id="patch_46">
    <path clip-path="url(#pc06066e03b)" d="M 187.907056 126 
L 190.178426 126 
L 190.178426 88.368451 
L 187.907056 88.368451 
z
" style="fill:#ff0000;"/>
   </g>
   <g id="patch_47">
    <path clip-path="url(#pc06066e03b)" d="M 190.93555 126 
L 193.20692 126 
L 193.20692 106.915337 
L 190.93555 106.915337 
z
" style="fill:#ff0000;"/>
   </g>
   <g id="patch_48">
    <path clip-path="url(#pc06066e03b)" d="M 193.964043 126 
L 196.235414 126 
L 196.235414 120.711804 
L 193.964043 120.711804 
z
" style="fill:#ff0000;"/>
   </g>
   <g id="patch_49">
    <path clip-path="url(#pc06066e03b)" d="M 196.992537 126 
L 199.263908 126 
L 199.263908 125.776242 
L 196.992537 125.776242 
z
" style="fill:#ff0000;"/>
   </g>
   <g id="patch_50">
    <path clip-path="url(#pc06066e03b)" d="M 200.021031 126 
L 202.292402 126 
L 202.292402 126 
L 200.021031 126 
z
" style="fill:#ff0000;"/>
   </g>
   <g id="patch_51">
    <path clip-path="url(#pc06066e03b)" d="M 203.049525 126 
L 205.320896 126 
L 205.320896 126 
L 203.049525 126 
z
" style="fill:#ff0000;"/>
   </g>
   <g id="patch_52">
    <path clip-path="url(#pc06066e03b)" d="M 206.078019 126 
L 208.349389 126 
L 208.349389 126 
L 206.078019 126 
z
" style="fill:#ff0000;"/>
   </g>
   <g id="patch_53">
    <path clip-path="url(#pc06066e03b)" d="M 209.106513 126 
L 211.377883 126 
L 211.377883 126 
L 209.106513 126 
z
" style="fill:#ff0000;"/>
   </g>
   <g id="patch_54">
    <path clip-path="url(#pc06066e03b)" d="M 212.135007 126 
L 214.406377 126 
L 214.406377 126 
L 212.135007 126 
z
" style="fill:#ff0000;"/>
   </g>
   <g id="patch_55">
    <path clip-path="url(#pc06066e03b)" d="M 215.163501 126 
L 217.434871 126 
L 217.434871 125.800065 
L 215.163501 125.800065 
z
" style="fill:#ff0000;"/>
   </g>
   <g id="patch_56">
    <path clip-path="url(#pc06066e03b)" d="M 218.191995 126 
L 220.463365 126 
L 220.463365 120.775259 
L 218.191995 120.775259 
z
" style="fill:#ff0000;"/>
   </g>
   <g id="patch_57">
    <path clip-path="url(#pc06066e03b)" d="M 221.220488 126 
L 223.491859 126 
L 223.491859 107.458581 
L 221.220488 107.458581 
z
" style="fill:#ff0000;"/>
   </g>
   <g id="patch_58">
    <path clip-path="url(#pc06066e03b)" d="M 224.248982 126 
L 226.520353 126 
L 226.520353 88.763848 
L 224.248982 88.763848 
z
" style="fill:#ff0000;"/>
   </g>
   <g id="patch_59">
    <path clip-path="url(#pc06066e03b)" d="M 227.277476 126 
L 229.548847 126 
L 229.548847 70.61151 
L 227.277476 70.61151 
z
" style="fill:#ff0000;"/>
   </g>
   <g id="patch_60">
    <path clip-path="url(#pc06066e03b)" d="M 230.30597 126 
L 232.577341 126 
L 232.577341 56.507688 
L 230.30597 56.507688 
z
" style="fill:#ff0000;"/>
   </g>
   <g id="patch_61">
    <path clip-path="url(#pc06066e03b)" d="M 233.334464 126 
L 235.605834 126 
L 235.605834 46.64963 
L 233.334464 46.64963 
z
" style="fill:#ff0000;"/>
   </g>
   <g id="patch_62">
    <path clip-path="url(#pc06066e03b)" d="M 236.362958 126 
L 238.634328 126 
L 238.634328 39.569031 
L 236.362958 39.569031 
z
" style="fill:#ff0000;"/>
   </g>
   <g id="patch_63">
    <path clip-path="url(#pc06066e03b)" d="M 239.391452 126 
L 241.662822 126 
L 241.662822 34.825745 
L 239.391452 34.825745 
z
" style="fill:#ff0000;"/>
   </g>
   <g id="patch_64">
    <path clip-path="url(#pc06066e03b)" d="M 242.419946 126 
L 244.691316 126 
L 244.691316 31.581026 
L 242.419946 31.581026 
z
" style="fill:#ff0000;"/>
   </g>
   <g id="patch_65">
    <path clip-path="url(#pc06066e03b)" d="M 245.44844 126 
L 247.71981 126 
L 247.71981 29.337237 
L 245.44844 29.337237 
z
" style="fill:#ff0000;"/>
   </g>
   <g id="patch_66">
    <path clip-path="url(#pc06066e03b)" d="M 248.476934 126 
L 250.748304 126 
L 250.748304 27.74458 
L 248.476934 27.74458 
z
" style="fill:#ff0000;"/>
   </g>
   <g id="patch_67">
    <path clip-path="url(#pc06066e03b)" d="M 251.505427 126 
L 253.776798 126 
L 253.776798 26.609675 
L 251.505427 26.609675 
z
" style="fill:#ff0000;"/>
   </g>
   <g id="patch_68">
    <path clip-path="url(#pc06066e03b)" d="M 254.533921 126 
L 256.805292 126 
L 256.805292 25.73489 
L 254.533921 25.73489 
z
" style="fill:#ff0000;"/>
   </g>
   <g id="patch_69">
    <path clip-path="url(#pc06066e03b)" d="M 257.562415 126 
L 259.833786 126 
L 259.833786 25.09729 
L 257.562415 25.09729 
z
" style="fill:#ff0000;"/>
   </g>
   <g id="patch_70">
    <path clip-path="url(#pc06066e03b)" d="M 260.590909 126 
L 262.86228 126 
L 262.86228 24.604636 
L 260.590909 24.604636 
z
" style="fill:#ff0000;"/>
   </g>
   <g id="patch_71">
    <path clip-path="url(#pc06066e03b)" d="M 263.619403 126 
L 265.890773 126 
L 265.890773 24.235036 
L 263.619403 24.235036 
z
" style="fill:#ff0000;"/>
   </g>
   <g id="patch_72">
    <path clip-path="url(#pc06066e03b)" d="M 266.647897 126 
L 268.919267 126 
L 268.919267 23.933592 
L 266.647897 23.933592 
z
" style="fill:#ff0000;"/>
   </g>
   <g id="patch_73">
    <path clip-path="url(#pc06066e03b)" d="M 269.676391 126 
L 271.947761 126 
L 271.947761 23.687907 
L 269.676391 23.687907 
z
" style="fill:#ff0000;"/>
   </g>
   <g id="patch_74">
    <path clip-path="url(#pc06066e03b)" d="M 272.704885 126 
L 274.976255 126 
L 274.976255 23.500649 
L 272.704885 23.500649 
z
" style="fill:#ff0000;"/>
   </g>
   <g id="patch_75">
    <path clip-path="url(#pc06066e03b)" d="M 275.733379 126 
L 278.004749 126 
L 278.004749 23.333982 
L 275.733379 23.333982 
z
" style="fill:#ff0000;"/>
   </g>
   <g id="patch_76">
    <path clip-path="url(#pc06066e03b)" d="M 278.761872 126 
L 281.033243 126 
L 281.033243 23.205561 
L 278.761872 23.205561 
z
" style="fill:#ff0000;"/>
   </g>
   <g id="patch_77">
    <path clip-path="url(#pc06066e03b)" d="M 281.790366 126 
L 284.061737 126 
L 284.061737 23.100026 
L 281.790366 23.100026 
z
" style="fill:#ff0000;"/>
   </g>
   <g id="patch_78">
    <path clip-path="url(#pc06066e03b)" d="M 284.81886 126 
L 287.090231 126 
L 287.090231 23.018781 
L 284.81886 23.018781 
z
" style="fill:#ff0000;"/>
   </g>
   <g id="patch_79">
    <path clip-path="url(#pc06066e03b)" d="M 287.847354 126 
L 290.118725 126 
L 290.118725 22.942605 
L 287.847354 22.942605 
z
" style="fill:#ff0000;"/>
   </g>
   <g id="patch_80">
    <path clip-path="url(#pc06066e03b)" d="M 290.875848 126 
L 293.147218 126 
L 293.147218 22.886038 
L 290.875848 22.886038 
z
" style="fill:#ff0000;"/>
   </g>
   <g id="patch_81">
    <path clip-path="url(#pc06066e03b)" d="M 293.904342 126 
L 296.175712 126 
L 296.175712 22.82848 
L 293.904342 22.82848 
z
" style="fill:#ff0000;"/>
   </g>
   <g id="patch_82">
    <path clip-path="url(#pc06066e03b)" d="M 296.932836 126 
L 299.204206 126 
L 299.204206 22.783827 
L 296.932836 22.783827 
z
" style="fill:#ff0000;"/>
   </g>
   <g id="patch_83">
    <path clip-path="url(#pc06066e03b)" d="M 299.96133 126 
L 302.2327 126 
L 302.2327 22.748232 
L 299.96133 22.748232 
z
" style="fill:#ff0000;"/>
   </g>
   <g id="patch_84">
    <path clip-path="url(#pc06066e03b)" d="M 302.989824 126 
L 305.261194 126 
L 305.261194 22.712664 
L 302.989824 22.712664 
z
" style="fill:#ff0000;"/>
   </g>
   <g id="patch_85">
    <path clip-path="url(#pc06066e03b)" d="M 306.018318 126 
L 308.289688 126 
L 308.289688 22.688653 
L 306.018318 22.688653 
z
" style="fill:#ff0000;"/>
   </g>
   <g id="patch_86">
    <path clip-path="url(#pc06066e03b)" d="M 309.046811 126 
L 311.318182 126 
L 311.318182 22.664702 
L 309.046811 22.664702 
z
" style="fill:#ff0000;"/>
   </g>
   <g id="matplotlib.axis_1">
    <g id="xtick_1">
     <g id="line2d_1">
      <defs>
       <path d="M 0 0 
L 0 3.5 
" id="m203acef97e" style="stroke:#000000;stroke-width:0.8;"/>
      </defs>
      <g>
       <use style="stroke:#000000;stroke-width:0.8;" x="55.789009" xlink:href="#m203acef97e" y="126"/>
      </g>
     </g>
     <g id="text_1">
      <!-- 0 -->
      <defs>
       <path d="M 31.78125 66.40625 
Q 24.171875 66.40625 20.328125 58.90625 
Q 16.5 51.421875 16.5 36.375 
Q 16.5 21.390625 20.328125 13.890625 
Q 24.171875 6.390625 31.78125 6.390625 
Q 39.453125 6.390625 43.28125 13.890625 
Q 47.125 21.390625 47.125 36.375 
Q 47.125 51.421875 43.28125 58.90625 
Q 39.453125 66.40625 31.78125 66.40625 
z
M 31.78125 74.21875 
Q 44.046875 74.21875 50.515625 64.515625 
Q 56.984375 54.828125 56.984375 36.375 
Q 56.984375 17.96875 50.515625 8.265625 
Q 44.046875 -1.421875 31.78125 -1.421875 
Q 19.53125 -1.421875 13.0625 8.265625 
Q 6.59375 17.96875 6.59375 36.375 
Q 6.59375 54.828125 13.0625 64.515625 
Q 19.53125 74.21875 31.78125 74.21875 
z
" id="DejaVuSans-48"/>
      </defs>
      <g transform="translate(52.607759 140.598437)scale(0.1 -0.1)">
       <use xlink:href="#DejaVuSans-48"/>
      </g>
     </g>
    </g>
    <g id="xtick_2">
     <g id="line2d_2">
      <g>
       <use style="stroke:#000000;stroke-width:0.8;" x="116.358887" xlink:href="#m203acef97e" y="126"/>
      </g>
     </g>
     <g id="text_2">
      <!-- 20 -->
      <defs>
       <path d="M 19.1875 8.296875 
L 53.609375 8.296875 
L 53.609375 0 
L 7.328125 0 
L 7.328125 8.296875 
Q 12.9375 14.109375 22.625 23.890625 
Q 32.328125 33.6875 34.8125 36.53125 
Q 39.546875 41.84375 41.421875 45.53125 
Q 43.3125 49.21875 43.3125 52.78125 
Q 43.3125 58.59375 39.234375 62.25 
Q 35.15625 65.921875 28.609375 65.921875 
Q 23.96875 65.921875 18.8125 64.3125 
Q 13.671875 62.703125 7.8125 59.421875 
L 7.8125 69.390625 
Q 13.765625 71.78125 18.9375 73 
Q 24.125 74.21875 28.421875 74.21875 
Q 39.75 74.21875 46.484375 68.546875 
Q 53.21875 62.890625 53.21875 53.421875 
Q 53.21875 48.921875 51.53125 44.890625 
Q 49.859375 40.875 45.40625 35.40625 
Q 44.1875 33.984375 37.640625 27.21875 
Q 31.109375 20.453125 19.1875 8.296875 
z
" id="DejaVuSans-50"/>
      </defs>
      <g transform="translate(109.996387 140.598437)scale(0.1 -0.1)">
       <use xlink:href="#DejaVuSans-50"/>
       <use x="63.623047" xlink:href="#DejaVuSans-48"/>
      </g>
     </g>
    </g>
    <g id="xtick_3">
     <g id="line2d_3">
      <g>
       <use style="stroke:#000000;stroke-width:0.8;" x="176.928765" xlink:href="#m203acef97e" y="126"/>
      </g>
     </g>
     <g id="text_3">
      <!-- 40 -->
      <defs>
       <path d="M 37.796875 64.3125 
L 12.890625 25.390625 
L 37.796875 25.390625 
z
M 35.203125 72.90625 
L 47.609375 72.90625 
L 47.609375 25.390625 
L 58.015625 25.390625 
L 58.015625 17.1875 
L 47.609375 17.1875 
L 47.609375 0 
L 37.796875 0 
L 37.796875 17.1875 
L 4.890625 17.1875 
L 4.890625 26.703125 
z
" id="DejaVuSans-52"/>
      </defs>
      <g transform="translate(170.566265 140.598437)scale(0.1 -0.1)">
       <use xlink:href="#DejaVuSans-52"/>
       <use x="63.623047" xlink:href="#DejaVuSans-48"/>
      </g>
     </g>
    </g>
    <g id="xtick_4">
     <g id="line2d_4">
      <g>
       <use style="stroke:#000000;stroke-width:0.8;" x="237.498643" xlink:href="#m203acef97e" y="126"/>
      </g>
     </g>
     <g id="text_4">
      <!-- 60 -->
      <defs>
       <path d="M 33.015625 40.375 
Q 26.375 40.375 22.484375 35.828125 
Q 18.609375 31.296875 18.609375 23.390625 
Q 18.609375 15.53125 22.484375 10.953125 
Q 26.375 6.390625 33.015625 6.390625 
Q 39.65625 6.390625 43.53125 10.953125 
Q 47.40625 15.53125 47.40625 23.390625 
Q 47.40625 31.296875 43.53125 35.828125 
Q 39.65625 40.375 33.015625 40.375 
z
M 52.59375 71.296875 
L 52.59375 62.3125 
Q 48.875 64.0625 45.09375 64.984375 
Q 41.3125 65.921875 37.59375 65.921875 
Q 27.828125 65.921875 22.671875 59.328125 
Q 17.53125 52.734375 16.796875 39.40625 
Q 19.671875 43.65625 24.015625 45.921875 
Q 28.375 48.1875 33.59375 48.1875 
Q 44.578125 48.1875 50.953125 41.515625 
Q 57.328125 34.859375 57.328125 23.390625 
Q 57.328125 12.15625 50.6875 5.359375 
Q 44.046875 -1.421875 33.015625 -1.421875 
Q 20.359375 -1.421875 13.671875 8.265625 
Q 6.984375 17.96875 6.984375 36.375 
Q 6.984375 53.65625 15.1875 63.9375 
Q 23.390625 74.21875 37.203125 74.21875 
Q 40.921875 74.21875 44.703125 73.484375 
Q 48.484375 72.75 52.59375 71.296875 
z
" id="DejaVuSans-54"/>
      </defs>
      <g transform="translate(231.136143 140.598437)scale(0.1 -0.1)">
       <use xlink:href="#DejaVuSans-54"/>
       <use x="63.623047" xlink:href="#DejaVuSans-48"/>
      </g>
     </g>
    </g>
    <g id="xtick_5">
     <g id="line2d_5">
      <g>
       <use style="stroke:#000000;stroke-width:0.8;" x="298.068521" xlink:href="#m203acef97e" y="126"/>
      </g>
     </g>
     <g id="text_5">
      <!-- 80 -->
      <defs>
       <path d="M 31.78125 34.625 
Q 24.75 34.625 20.71875 30.859375 
Q 16.703125 27.09375 16.703125 20.515625 
Q 16.703125 13.921875 20.71875 10.15625 
Q 24.75 6.390625 31.78125 6.390625 
Q 38.8125 6.390625 42.859375 10.171875 
Q 46.921875 13.96875 46.921875 20.515625 
Q 46.921875 27.09375 42.890625 30.859375 
Q 38.875 34.625 31.78125 34.625 
z
M 21.921875 38.8125 
Q 15.578125 40.375 12.03125 44.71875 
Q 8.5 49.078125 8.5 55.328125 
Q 8.5 64.0625 14.71875 69.140625 
Q 20.953125 74.21875 31.78125 74.21875 
Q 42.671875 74.21875 48.875 69.140625 
Q 55.078125 64.0625 55.078125 55.328125 
Q 55.078125 49.078125 51.53125 44.71875 
Q 48 40.375 41.703125 38.8125 
Q 48.828125 37.15625 52.796875 32.3125 
Q 56.78125 27.484375 56.78125 20.515625 
Q 56.78125 9.90625 50.3125 4.234375 
Q 43.84375 -1.421875 31.78125 -1.421875 
Q 19.734375 -1.421875 13.25 4.234375 
Q 6.78125 9.90625 6.78125 20.515625 
Q 6.78125 27.484375 10.78125 32.3125 
Q 14.796875 37.15625 21.921875 38.8125 
z
M 18.3125 54.390625 
Q 18.3125 48.734375 21.84375 45.5625 
Q 25.390625 42.390625 31.78125 42.390625 
Q 38.140625 42.390625 41.71875 45.5625 
Q 45.3125 48.734375 45.3125 54.390625 
Q 45.3125 60.0625 41.71875 63.234375 
Q 38.140625 66.40625 31.78125 66.40625 
Q 25.390625 66.40625 21.84375 63.234375 
Q 18.3125 60.0625 18.3125 54.390625 
z
" id="DejaVuSans-56"/>
      </defs>
      <g transform="translate(291.706021 140.598437)scale(0.1 -0.1)">
       <use xlink:href="#DejaVuSans-56"/>
       <use x="63.623047" xlink:href="#DejaVuSans-48"/>
      </g>
     </g>
    </g>
   </g>
   <g id="matplotlib.axis_2">
    <g id="ytick_1">
     <g id="line2d_6">
      <defs>
       <path d="M 0 0 
L -3.5 0 
" id="m59447fd8d5" style="stroke:#000000;stroke-width:0.8;"/>
      </defs>
      <g>
       <use style="stroke:#000000;stroke-width:0.8;" x="45" xlink:href="#m59447fd8d5" y="126"/>
      </g>
     </g>
     <g id="text_6">
      <!-- 0.00 -->
      <defs>
       <path d="M 10.6875 12.40625 
L 21 12.40625 
L 21 0 
L 10.6875 0 
z
" id="DejaVuSans-46"/>
      </defs>
      <g transform="translate(15.734375 129.799219)scale(0.1 -0.1)">
       <use xlink:href="#DejaVuSans-48"/>
       <use x="63.623047" xlink:href="#DejaVuSans-46"/>
       <use x="95.410156" xlink:href="#DejaVuSans-48"/>
       <use x="159.033203" xlink:href="#DejaVuSans-48"/>
      </g>
     </g>
    </g>
    <g id="ytick_2">
     <g id="line2d_7">
      <g>
       <use style="stroke:#000000;stroke-width:0.8;" x="45" xlink:href="#m59447fd8d5" y="100.094865"/>
      </g>
     </g>
     <g id="text_7">
      <!-- 0.25 -->
      <defs>
       <path d="M 10.796875 72.90625 
L 49.515625 72.90625 
L 49.515625 64.59375 
L 19.828125 64.59375 
L 19.828125 46.734375 
Q 21.96875 47.46875 24.109375 47.828125 
Q 26.265625 48.1875 28.421875 48.1875 
Q 40.625 48.1875 47.75 41.5 
Q 54.890625 34.8125 54.890625 23.390625 
Q 54.890625 11.625 47.5625 5.09375 
Q 40.234375 -1.421875 26.90625 -1.421875 
Q 22.3125 -1.421875 17.546875 -0.640625 
Q 12.796875 0.140625 7.71875 1.703125 
L 7.71875 11.625 
Q 12.109375 9.234375 16.796875 8.0625 
Q 21.484375 6.890625 26.703125 6.890625 
Q 35.15625 6.890625 40.078125 11.328125 
Q 45.015625 15.765625 45.015625 23.390625 
Q 45.015625 31 40.078125 35.4375 
Q 35.15625 39.890625 26.703125 39.890625 
Q 22.75 39.890625 18.8125 39.015625 
Q 14.890625 38.140625 10.796875 36.28125 
z
" id="DejaVuSans-53"/>
      </defs>
      <g transform="translate(15.734375 103.894084)scale(0.1 -0.1)">
       <use xlink:href="#DejaVuSans-48"/>
       <use x="63.623047" xlink:href="#DejaVuSans-46"/>
       <use x="95.410156" xlink:href="#DejaVuSans-50"/>
       <use x="159.033203" xlink:href="#DejaVuSans-53"/>
      </g>
     </g>
    </g>
    <g id="ytick_3">
     <g id="line2d_8">
      <g>
       <use style="stroke:#000000;stroke-width:0.8;" x="45" xlink:href="#m59447fd8d5" y="74.18973"/>
      </g>
     </g>
     <g id="text_8">
      <!-- 0.50 -->
      <g transform="translate(15.734375 77.988949)scale(0.1 -0.1)">
       <use xlink:href="#DejaVuSans-48"/>
       <use x="63.623047" xlink:href="#DejaVuSans-46"/>
       <use x="95.410156" xlink:href="#DejaVuSans-53"/>
       <use x="159.033203" xlink:href="#DejaVuSans-48"/>
      </g>
     </g>
    </g>
    <g id="ytick_4">
     <g id="line2d_9">
      <g>
       <use style="stroke:#000000;stroke-width:0.8;" x="45" xlink:href="#m59447fd8d5" y="48.284595"/>
      </g>
     </g>
     <g id="text_9">
      <!-- 0.75 -->
      <defs>
       <path d="M 8.203125 72.90625 
L 55.078125 72.90625 
L 55.078125 68.703125 
L 28.609375 0 
L 18.3125 0 
L 43.21875 64.59375 
L 8.203125 64.59375 
z
" id="DejaVuSans-55"/>
      </defs>
      <g transform="translate(15.734375 52.083814)scale(0.1 -0.1)">
       <use xlink:href="#DejaVuSans-48"/>
       <use x="63.623047" xlink:href="#DejaVuSans-46"/>
       <use x="95.410156" xlink:href="#DejaVuSans-55"/>
       <use x="159.033203" xlink:href="#DejaVuSans-53"/>
      </g>
     </g>
    </g>
    <g id="ytick_5">
     <g id="line2d_10">
      <g>
       <use style="stroke:#000000;stroke-width:0.8;" x="45" xlink:href="#m59447fd8d5" y="22.37946"/>
      </g>
     </g>
     <g id="text_10">
      <!-- 1.00 -->
      <defs>
       <path d="M 12.40625 8.296875 
L 28.515625 8.296875 
L 28.515625 63.921875 
L 10.984375 60.40625 
L 10.984375 69.390625 
L 28.421875 72.90625 
L 38.28125 72.90625 
L 38.28125 8.296875 
L 54.390625 8.296875 
L 54.390625 0 
L 12.40625 0 
z
" id="DejaVuSans-49"/>
      </defs>
      <g transform="translate(15.734375 26.178679)scale(0.1 -0.1)">
       <use xlink:href="#DejaVuSans-49"/>
       <use x="63.623047" xlink:href="#DejaVuSans-46"/>
       <use x="95.410156" xlink:href="#DejaVuSans-48"/>
       <use x="159.033203" xlink:href="#DejaVuSans-48"/>
      </g>
     </g>
    </g>
   </g>
   <g id="patch_87">
    <path d="M 45 126 
L 45 17.28 
" style="fill:none;stroke:#000000;stroke-linecap:square;stroke-linejoin:miter;stroke-width:0.8;"/>
   </g>
   <g id="patch_88">
    <path d="M 324 126 
L 324 17.28 
" style="fill:none;stroke:#000000;stroke-linecap:square;stroke-linejoin:miter;stroke-width:0.8;"/>
   </g>
   <g id="patch_89">
    <path d="M 45 126 
L 324 126 
" style="fill:none;stroke:#000000;stroke-linecap:square;stroke-linejoin:miter;stroke-width:0.8;"/>
   </g>
   <g id="patch_90">
    <path d="M 45 17.28 
L 324 17.28 
" style="fill:none;stroke:#000000;stroke-linecap:square;stroke-linejoin:miter;stroke-width:0.8;"/>
   </g>
  </g>
 </g>
 <defs>
  <clipPath id="pc06066e03b">
   <rect height="108.72" width="279" x="45" y="17.28"/>
  </clipPath>
 </defs>
</svg>
